<svg width="160" height="160" viewBox="0 0 160 160" fill="none" xmlns="http://www.w3.org/2000/svg">
<g clip-path="url(#clip0)">
<rect width="160" height="160" fill="white"/>
<rect width="160" height="160" fill="black" fill-opacity="0.04"/>
<path fill-rule="evenodd" clip-rule="evenodd" d="M108.158 17.6666C108.158 19.05 107.05 20.1666 105.667 20.1666C104.283 20.1666 103.167 19.05 103.167 17.6666C103.167 16.2833 104.283 15.1666 105.667 15.1666C107.05 15.1666 108.158 16.2833 108.158 17.6666ZM114.825 17.6666C114.825 19.05 113.717 20.1666 112.333 20.1666C110.95 20.1666 109.833 19.05 109.833 17.6666C109.833 16.2833 110.95 15.1666 112.333 15.1666C113.717 15.1666 114.825 16.2833 114.825 17.6666ZM105.667 21.8333C103.725 21.8333 99.8333 22.8083 99.8333 24.75V26C99.8333 26.4583 100.208 26.8333 100.667 26.8333H110.667C111.125 26.8333 111.5 26.4583 111.5 26V24.75C111.5 22.8083 107.608 21.8333 105.667 21.8333ZM111.525 21.875C111.817 21.85 112.092 21.8333 112.333 21.8333C114.275 21.8333 118.167 22.8083 118.167 24.75V26C118.167 26.4583 117.792 26.8333 117.333 26.8333H113.017C113.108 26.575 113.167 26.2916 113.167 26V24.75C113.167 23.525 112.508 22.6 111.558 21.9083C111.556 21.9058 111.553 21.9025 111.551 21.8989C111.544 21.8906 111.537 21.8808 111.525 21.875Z" fill="black" fill-opacity="0.04"/>
<path d="M81.1248 86.9226C80.4914 87.4976 79.5164 87.4976 78.8831 86.9143L78.7914 86.831C74.4164 82.8726 71.5581 80.281 71.6664 77.0476C71.7164 75.631 72.4414 74.2726 73.6164 73.4726C75.8164 71.9726 78.5331 72.6726 79.9998 74.3893C81.4664 72.6726 84.1831 71.9643 86.3831 73.4726C87.5581 74.2726 88.2831 75.631 88.3331 77.0476C88.4498 80.281 85.5831 82.8726 81.2081 86.8476L81.1248 86.9226Z" fill="black" fill-opacity="0.04"/>
<path d="M20 64.5996L23.4583 66.6913C24.0917 67.0746 24.8667 66.508 24.7 65.7913L23.7833 61.858L26.8417 59.208C27.4 58.7246 27.1 57.808 26.3667 57.7496L22.3417 57.408L20.7667 53.6913C20.4833 53.0163 19.5167 53.0163 19.2333 53.6913L17.6583 57.3996L13.6333 57.7413C12.9 57.7996 12.6 58.7163 13.1583 59.1996L16.2167 61.8496L15.3 65.783C15.1333 66.4996 15.9083 67.0663 16.5417 66.683L20 64.5996V64.5996Z" fill="black" fill-opacity="0.04"/>
<path fill-rule="evenodd" clip-rule="evenodd" d="M56.9917 121.667C52.3917 121.667 48.6667 125.4 48.6667 130C48.6667 134.6 52.3917 138.333 56.9917 138.333C61.6 138.333 65.3333 134.6 65.3333 130C65.3333 125.4 61.6 121.667 56.9917 121.667ZM57 136.667C53.3167 136.667 50.3333 133.683 50.3333 130C50.3333 126.317 53.3167 123.333 57 123.333C60.6833 123.333 63.6667 126.317 63.6667 130C63.6667 133.683 60.6833 136.667 57 136.667ZM61.1667 127.917C61.1667 128.608 60.6083 129.167 59.9167 129.167C59.225 129.167 58.6667 128.608 58.6667 127.917C58.6667 127.225 59.225 126.667 59.9167 126.667C60.6083 126.667 61.1667 127.225 61.1667 127.917ZM54.0833 129.167C54.775 129.167 55.3333 128.608 55.3333 127.917C55.3333 127.225 54.775 126.667 54.0833 126.667C53.3917 126.667 52.8333 127.225 52.8333 127.917C52.8333 128.608 53.3917 129.167 54.0833 129.167ZM60.9583 132.292C60.1667 133.658 58.6917 134.583 57 134.583C55.3083 134.583 53.8333 133.658 53.0417 132.292C52.8833 132.017 53.0917 131.667 53.4083 131.667H60.5917C60.9167 131.667 61.1167 132.017 60.9583 132.292Z" fill="black" fill-opacity="0.04"/>
<path fill-rule="evenodd" clip-rule="evenodd" d="M2.09808e-05 -8.33337C-4.59998 -8.33337 -8.33331 -4.60004 -8.33331 -4.00543e-05C-8.33331 4.59996 -4.59998 8.33329 2.09808e-05 8.33329C4.60002 8.33329 8.33335 4.59996 8.33335 -4.00543e-05C8.33335 -4.60004 4.60002 -8.33337 2.09808e-05 -8.33337ZM-0.833303 6.60826C-4.12497 6.19992 -6.66664 3.39992 -6.66664 -7.62939e-05C-6.66664 -0.516743 -6.59997 -1.00841 -6.49164 -1.49174L-2.49997 2.49992V3.33326C-2.49997 4.24992 -1.74997 4.99992 -0.833303 4.99992V6.60826ZM3.33335 3.33326C4.08335 3.33326 4.70002 3.81659 4.91669 4.49159C6.00002 3.30826 6.66669 1.73326 6.66669 -7.62939e-05C6.66669 -2.79174 4.94169 -5.18341 2.50002 -6.17508V-5.83341C2.50002 -4.91674 1.75002 -4.16674 0.833353 -4.16674H-0.833313V-2.50008C-0.833313 -2.04174 -1.20831 -1.66674 -1.66665 -1.66674H-3.33331V-7.62939e-05H1.66669C2.12502 -7.62939e-05 2.50002 0.374924 2.50002 0.833257V3.33326H3.33335Z" fill="black" fill-opacity="0.04"/>
<path fill-rule="evenodd" clip-rule="evenodd" d="M2.09808e-05 151.667C-4.59998 151.667 -8.33331 155.4 -8.33331 160C-8.33331 164.6 -4.59998 168.333 2.09808e-05 168.333C4.60002 168.333 8.33335 164.6 8.33335 160C8.33335 155.4 4.60002 151.667 2.09808e-05 151.667ZM-0.833303 166.608C-4.12497 166.2 -6.66664 163.4 -6.66664 160C-6.66664 159.483 -6.59997 158.992 -6.49164 158.508L-2.49997 162.5V163.333C-2.49997 164.25 -1.74997 165 -0.833303 165V166.608ZM3.33335 163.333C4.08335 163.333 4.70002 163.817 4.91669 164.492C6.00002 163.308 6.66669 161.733 6.66669 160C6.66669 157.208 4.94169 154.817 2.50002 153.825V154.167C2.50002 155.083 1.75002 155.833 0.833353 155.833H-0.833313V157.5C-0.833313 157.958 -1.20831 158.333 -1.66665 158.333H-3.33331V160H1.66669C2.12502 160 2.50002 160.375 2.50002 160.833V163.333H3.33335Z" fill="black" fill-opacity="0.04"/>
<path fill-rule="evenodd" clip-rule="evenodd" d="M138.174 106.91L142.791 102.293C143.274 101.802 144.058 101.802 144.549 102.285C144.849 102.585 144.974 103.01 144.891 103.427L144.099 107.243H148.808C150.599 107.243 151.808 109.077 151.108 110.727L148.391 117.068C148.124 117.677 147.524 118.077 146.858 118.077H139.358C138.441 118.077 137.691 117.327 137.691 116.41V108.085C137.691 107.643 137.866 107.218 138.174 106.91ZM136.024 116.41C136.024 117.327 135.274 118.077 134.358 118.077C133.441 118.077 132.691 117.327 132.691 116.41V109.743C132.691 108.827 133.441 108.077 134.358 108.077C135.274 108.077 136.024 108.827 136.024 109.743V116.41Z" fill="black" fill-opacity="0.04"/>
<path fill-rule="evenodd" clip-rule="evenodd" d="M160 151.667C155.4 151.667 151.667 155.4 151.667 160C151.667 164.6 155.4 168.333 160 168.333C164.6 168.333 168.333 164.6 168.333 160C168.333 155.4 164.6 151.667 160 151.667ZM159.167 166.608C155.875 166.2 153.333 163.4 153.333 160C153.333 159.483 153.4 158.992 153.508 158.508L157.5 162.5V163.333C157.5 164.25 158.25 165 159.167 165V166.608ZM163.333 163.333C164.083 163.333 164.7 163.817 164.917 164.492C166 163.308 166.667 161.733 166.667 160C166.667 157.208 164.942 154.817 162.5 153.825V154.167C162.5 155.083 161.75 155.833 160.833 155.833H159.167V157.5C159.167 157.958 158.792 158.333 158.333 158.333H156.667V160H161.667C162.125 160 162.5 160.375 162.5 160.833V163.333H163.333Z" fill="black" fill-opacity="0.04"/>
<path fill-rule="evenodd" clip-rule="evenodd" d="M160 -8.33337C155.4 -8.33337 151.667 -4.60004 151.667 -4.00543e-05C151.667 4.59996 155.4 8.33329 160 8.33329C164.6 8.33329 168.333 4.59996 168.333 -4.00543e-05C168.333 -4.60004 164.6 -8.33337 160 -8.33337ZM159.167 6.60826C155.875 6.19992 153.333 3.39992 153.333 -7.62939e-05C153.333 -0.516743 153.4 -1.00841 153.508 -1.49174L157.5 2.49992V3.33326C157.5 4.24992 158.25 4.99992 159.167 4.99992V6.60826ZM163.333 3.33326C164.083 3.33326 164.7 3.81659 164.917 4.49159C166 3.30826 166.667 1.73326 166.667 -7.62939e-05C166.667 -2.79174 164.942 -5.18341 162.5 -6.17508V-5.83341C162.5 -4.91674 161.75 -4.16674 160.833 -4.16674H159.167V-2.50008C159.167 -2.04174 158.792 -1.66674 158.333 -1.66674H156.667V-7.62939e-05H161.667C162.125 -7.62939e-05 162.5 0.374924 162.5 0.833257V3.33326H163.333Z" fill="black" fill-opacity="0.04"/>
</g>
<defs>
<clipPath id="clip0">
<rect width="160" height="160" fill="white"/>
</clipPath>
</defs>
</svg>
