<svg width="173" height="230" viewBox="0 0 173 230" fill="none" xmlns="http://www.w3.org/2000/svg">
<path d="M151.8 185.1C146.3 194.2 139.2 202.2 130.8 208.7C122.5 198.2 113.8 188.1 104.7 178.3L103.6 162.3C114 152.8 124.8 143.7 136 135.1C137.2 134.2 138.6 133.8 140.1 134.1C141.6 134.3 143.1 133.9 144.2 133L152.6 126.5L160.2 122.5C162.1 121.5 162.8 119 161.7 117.1C160.6 115.4 158.4 114.8 156.6 115.8L151.8 118.3L159.2 112.5C161.2 111 161.5 108.1 160 106.2C158.5 104.2 155.6 103.9 153.7 105.4L145.4 111.9L148.9 107.7C150.3 106.1 150 103.6 148.3 102.4C146.7 101.2 144.5 101.6 143.2 103.1L134.6 113.2L128.2 108.9C127.3 108.3 126.2 108 125.1 108.1C123.7 108.2 122.4 109 121.5 110.2C120 112.4 120.6 115.4 122.8 116.9L126.8 119.6L129.3 122.8C116.3 132.6 103.9 143 92.1 154.1C88.3 154.6 84.4 154.6 80.5 154.1C68.6 143.1 56.2 132.6 43.2 122.8L45.7 119.6L49.7 116.9C51.9 115.4 52.5 112.4 51 110.2C50.2 108.9 48.8 108.2 47.4 108.1C46.3 108 45.3 108.3 44.3 108.9L37.9 113.2L29.3 103.1C28 101.6 25.8 101.3 24.2 102.4C22.5 103.7 22.2 106.1 23.6 107.7L27.1 111.9L18.8 105.4C16.8 103.9 14 104.2 12.5 106.2C11 108.2 11.3 111 13.3 112.5L20.7 118.3L15.9 115.8C14.1 114.9 11.8 115.4 10.8 117.1C9.60001 119 10.3 121.5 12.3 122.5L19.9 126.5L28.3 133C29.5 133.9 31 134.3 32.4 134.1C33.9 133.9 35.3 134.2 36.5 135.1C47.7 143.7 58.5 152.7 68.9 162.3L67.8 178.3C58.7 188 50 198.2 41.7 208.7C33.3 202.1 26.2 194.1 20.7 185.1C16.9 178.8 8.90001 176.3 2.10001 179.2C9.60001 197 22 212.2 37.8 223.1L44.5 227.8L48.5 222.5C59 208.8 70.2 195.7 82.1 183.3C84.8 183.5 87.5 183.5 90.2 183.3C102.1 195.7 113.3 208.8 123.8 222.5L127.8 227.8L134.5 223.1C150.3 212.1 162.7 196.9 170.2 179.2C163.6 176.3 155.6 178.8 151.8 185.1ZM147.8 120.5L143.5 114.9L147.8 120.5ZM24.7 120.5L29 114.9L24.7 120.5Z" fill="#EDE3F0"/>
<path d="M128 230C127.3 230 126.7 229.7 126.3 229.1L122.3 223.8C112.1 210.5 101.1 197.6 89.5 185.5C87.4 185.6 85.3 185.6 83.1 185.5C71.5 197.6 60.5 210.5 50.4 223.8L46.4 229.1C45.7 230 44.4 230.2 43.4 229.6L36.7 224.9C20.5 213.7 7.9 198.1 0.200003 180C-0.299997 178.9 0.200003 177.6 1.4 177.1C9.2 173.8 18.3 176.7 22.7 183.9C27.7 192.2 34 199.5 41.5 205.6C49.2 195.9 57.3 186.5 65.8 177.4L66.8 163.2C56.6 154 46 145.2 35.2 137C34.5 136.5 33.6 136.3 32.8 136.4C30.7 136.7 28.6 136.2 27 134.9L18.8 128.5L11.3 124.6C9.8 123.8 8.7 122.5 8.3 120.9C7.9 119.3 8.1 117.6 9 116.2C9.6 115.2 10.5 114.4 11.5 114C9.1 111.7 8.8 107.8 10.9 105.1C12 103.7 13.6 102.8 15.4 102.6C17.2 102.4 18.9 102.9 20.3 104L20.8 104.4C21.1 103 21.9 101.8 23 101C25.5 99.2 29 99.6 31 102L38.3 110.6L43.1 107.4C44.4 106.5 46 106.1 47.6 106.2C49.7 106.4 51.6 107.5 52.8 109.3C54.9 112.5 54.1 116.9 50.9 119L47.2 121.5L46.3 122.7C58.4 131.9 70.2 141.9 81.4 152.3C84.6 152.7 87.8 152.7 91.1 152.3C102.3 141.9 114.1 132 126.2 122.7L125.3 121.5L121.6 119C118.4 116.9 117.5 112.5 119.7 109.3C120.9 107.5 122.8 106.4 124.9 106.2C126.5 106.1 128.1 106.5 129.4 107.4L134.2 110.6L141.5 102C143.5 99.6 147.1 99.1 149.5 101C150.6 101.8 151.4 103.1 151.7 104.4L152.2 104C155.1 101.7 159.3 102.3 161.6 105.2C163.7 107.9 163.4 111.8 161 114.1C162 114.6 162.9 115.3 163.5 116.3C164.4 117.7 164.6 119.4 164.2 121C163.8 122.6 162.7 123.9 161.2 124.7L153.7 128.6L145.5 135C143.9 136.3 141.7 136.8 139.7 136.5C138.8 136.4 138 136.6 137.3 137.1C126.5 145.3 116 154.2 105.8 163.4L106.8 177.6C115.2 186.7 123.4 196.2 131.1 205.8C138.6 199.7 144.9 192.4 149.9 184.1C154.3 176.9 163.4 174 171.2 177.3C171.7 177.5 172.2 178 172.4 178.5C172.6 179 172.6 179.6 172.4 180.2C164.7 198.3 152.1 213.9 135.9 225.1L129.2 229.8C128.8 229.9 128.4 230 128 230ZM5.2 180.5C12.6 196.9 24.3 211 39.2 221.3L44.2 224.8L47 221.2C57.5 207.5 68.8 194.3 80.8 181.8C81.3 181.3 81.9 181.1 82.6 181.1C85.2 181.3 87.8 181.3 90.3 181.1C91 181 91.6 181.3 92.1 181.8C104 194.3 115.4 207.5 125.9 221.2L128.7 224.8L133.7 221.3C148.5 211 160.3 196.9 167.7 180.5C162.4 179.3 156.8 181.5 154 186.2C148.3 195.5 141.1 203.7 132.5 210.4C131.6 211.1 130.2 211 129.4 210C121.2 199.6 112.5 189.5 103.5 179.8C103.2 179.4 103 179 102.9 178.5L101.8 162.5C101.8 161.8 102 161.2 102.5 160.7C113 151.1 123.9 141.9 135 133.4C136.6 132.2 138.7 131.6 140.8 131.9C141.7 132 142.6 131.8 143.3 131.3L151.7 124.8C151.8 124.7 151.9 124.6 152 124.6L159.6 120.6C160 120.4 160.3 120 160.4 119.6C160.5 119.2 160.5 118.7 160.2 118.3C159.8 117.6 158.7 117.3 157.9 117.8L153.1 120.3C152.1 120.8 150.9 120.5 150.2 119.5C149.6 118.5 149.8 117.3 150.7 116.6L158.1 110.8C159.1 110 159.3 108.6 158.5 107.6C157.7 106.6 156.3 106.4 155.3 107.2L147 113.7C146.7 113.9 146.3 114.1 146 114.1L149.9 119C150.2 119.4 150.4 119.9 150.4 120.3C150.4 121 150.1 121.6 149.6 122C148.6 122.7 147.3 122.6 146.5 121.6L142.2 116C141.9 115.6 141.7 115.1 141.7 114.7C141.7 114 142 113.4 142.5 113C142.8 112.7 143.2 112.6 143.6 112.5C143.4 111.8 143.5 111 144 110.4L147.5 106.2C147.8 105.9 147.9 105.5 147.8 105.1C147.8 104.7 147.5 104.3 147.2 104.1C146.6 103.6 145.6 103.8 145.1 104.4L136.5 114.5C135.8 115.3 134.5 115.5 133.6 114.9L127.2 110.6C126.7 110.3 126.1 110.1 125.5 110.2C124.7 110.3 124 110.7 123.5 111.4C122.7 112.6 123 114.2 124.2 115L128.2 117.7C128.4 117.8 128.6 118 128.7 118.2L131.2 121.4C131.6 121.9 131.7 122.4 131.6 123C131.5 123.6 131.2 124.1 130.8 124.5C118 134.2 105.5 144.7 93.7 155.6C93.4 155.9 92.9 156.1 92.5 156.2C88.5 156.7 84.4 156.7 80.3 156.2C79.8 156.1 79.4 155.9 79.1 155.6C67.3 144.6 54.8 134.1 42 124.5C41.5 124.1 41.2 123.6 41.2 123C41.1 122.4 41.3 121.8 41.6 121.4L44.1 118.2C44.2 118 44.4 117.9 44.6 117.7L48.6 115C49.8 114.2 50.1 112.6 49.3 111.4C48.9 110.7 48.1 110.3 47.3 110.2C46.7 110.1 46.1 110.3 45.6 110.6L39.2 114.9C38.3 115.5 37 115.3 36.3 114.5L27.7 104.4C27.2 103.8 26.2 103.6 25.6 104.1C25.3 104.3 25.1 104.7 25 105.1C25 105.5 25.1 105.9 25.3 106.2L28.8 110.4C29.3 111 29.4 111.8 29.2 112.5C29.6 112.5 30 112.7 30.3 113C30.9 113.4 31.1 114.1 31.1 114.7C31.1 115.2 30.9 115.6 30.6 116L26.3 121.6C25.6 122.6 24.2 122.7 23.2 122C22.6 121.6 22.4 120.9 22.4 120.3C22.4 119.8 22.6 119.4 22.9 119L26.8 114.1C26.4 114 26.1 113.9 25.8 113.7L17.5 107.2C17 106.8 16.4 106.7 15.8 106.7C15.2 106.8 14.6 107.1 14.3 107.6C13.5 108.6 13.7 110.1 14.7 110.8L22.1 116.6C23 117.3 23.2 118.6 22.6 119.5C22 120.5 20.7 120.8 19.7 120.3L14.9 117.8C14.1 117.4 13.1 117.6 12.6 118.3C12.4 118.7 12.3 119.2 12.4 119.6C12.5 120 12.8 120.4 13.2 120.6L20.8 124.6C20.9 124.7 21 124.7 21.1 124.8L29.5 131.3C30.2 131.8 31.1 132.1 32 131.9C34 131.6 36.1 132.1 37.8 133.4C49 142 60 151.2 70.4 160.8C70.9 161.3 71.1 161.9 71.1 162.6L70 178.6C70 179.1 69.8 179.6 69.4 179.9C60.3 189.6 51.6 199.8 43.5 210.1C42.8 211 41.4 211.2 40.4 210.5C31.8 203.8 24.5 195.6 18.9 186.3C16 181.6 10.4 179.3 5.2 180.5Z" fill="#9179B6"/>
<path d="M12.5 106.3C14 104.3 16.9 104 18.8 105.5L29.7 114L24.2 121.1L13.3 112.6C11.4 111.1 11 108.3 12.5 106.3Z" fill="#EDE3F0"/>
<path d="M24.2 121.7C24.1 121.7 24 121.7 23.9 121.6L12.5 112.8C11.6 112.1 11 111 10.8 109.8C10.7 108.6 11 107.4 11.7 106.5L12.4 105.6C13.1 104.7 14.2 104.1 15.4 103.9C16.6 103.8 17.8 104.1 18.7 104.8L30.1 113.6C30.2 113.7 30.3 113.8 30.3 114C30.3 114.1 30.3 114.3 30.2 114.4L24.7 121.5C24.6 121.6 24.4 121.7 24.2 121.7ZM12.6 107.1C12 107.8 11.8 108.7 11.9 109.6C12 110.5 12.5 111.3 13.2 111.8L24.1 120.3L29 114.1L18.1 105.6C17.4 105 16.5 104.8 15.6 104.9C14.7 105 13.9 105.5 13.4 106.2L12.6 107.1Z" fill="#9179B6"/>
<path d="M70.3 13.5L59 27.7C42 48.9 39.8 78.4 53.3 102C53.5 102.4 53.8 102.9 54 103.3C66.9 125.7 98.4 128.1 114.5 107.9C115.3 106.9 116.1 105.9 116.9 104.9C141.5 74 137 29.2 106.8 3.8L106 3.1C102.9 0.500003 98.3 3.8 99.8 7.6L105.4 21.5C110.2 33.4 110.3 46.7 105.7 58.6C100.5 71.9 82.4 73.6 74.9 61.5C70.3 54.2 69.1 45.3 71.4 37L77.1 17C78.3 12.9 73 10.2 70.3 13.5Z" fill="#EDE3F0"/>
<path d="M85.9 123.8C84.9 123.8 83.9 123.8 83 123.7C70.2 122.7 58.7 115.5 52.2 104.3L51.5 103C44.6 91.1 41.5 77.5 42.6 63.7C43.6 50 48.8 37 57.4 26.2L68.7 12.1C70.6 9.8 73.6 9.1 76.3 10.5C79 11.9 80.2 14.7 79.4 17.6L73.7 37.6C71.5 45.3 72.7 53.6 76.9 60.3C80 65.3 85.4 67.9 91.2 67.3C97 66.7 101.8 63.2 103.9 57.7C108.4 46.2 108.3 33.6 103.7 22.2L97.8 8.4C96.7 5.8 97.6 2.8 99.9 1.2C102.2 -0.399999 105.2 -0.399999 107.4 1.5L108.2 2.2C123.2 14.8 132.6 32.6 134.6 52.1C136.6 71.6 130.9 90.9 118.7 106.2L116.3 109.2C108.9 118.5 97.7 123.8 85.9 123.8ZM72 14.9L60.7 29C52.6 39.1 47.9 51.2 46.9 64.1C45.9 77 48.8 89.7 55.2 100.9L55.9 102.2C61.7 112.3 71.6 118.5 83.2 119.4C94.8 120.3 105.5 115.6 112.8 106.5L115.2 103.5C126.7 89 132 70.9 130.2 52.5C128.4 34.1 119.5 17.4 105.4 5.5L104.6 4.8C103.6 4 102.7 4.5 102.5 4.7C102.2 4.9 101.4 5.6 101.9 6.8L107.5 20.7C112.5 33.2 112.6 46.9 107.8 59.5C105.1 66.4 98.8 71.2 91.4 71.9C84 72.5 77 69 73 62.7C68.1 54.9 66.7 45.3 69.3 36.5L75 16.5C75.4 15.2 74.4 14.6 74.1 14.5C73.9 14.3 72.8 13.9 72 14.9Z" fill="#9179B6"/>
<path d="M70.3 13.5L59 27.7C42 48.9 39.8 78.4 53.3 102C53.5 102.4 53.8 102.9 54 103.3C66.9 125.7 98.4 128.1 114.5 107.9C115.3 106.9 116.1 105.9 116.9 104.9C141.5 74 137 29.2 106.8 3.8L106 3.1C102.9 0.500003 98.3 3.8 99.8 7.6L105.4 21.5C110.2 33.4 110.3 46.7 105.7 58.6C100.5 71.9 82.4 73.6 74.9 61.5C70.3 54.2 69.1 45.3 71.4 37L77.1 17C78.3 12.9 73 10.2 70.3 13.5Z" fill="#EDE3F0"/>
<path d="M85.9 122.2C85 122.2 84 122.2 83.1 122.1C70.8 121.2 59.8 114.2 53.6 103.5L52.9 102.2C46.2 90.5 43.2 77.3 44.2 63.9C45.2 50.5 50.2 37.8 58.6 27.3L69.9 13.2C71.5 11.2 73.8 11.2 75.4 12C77 12.8 78.3 14.8 77.6 17.2L71.9 37.2C69.6 45.3 70.8 54.1 75.3 61.2C78.7 66.7 84.7 69.6 91.1 69C97.6 68.4 102.8 64.4 105.2 58.4C109.8 46.5 109.7 33.5 105 21.7L99.4 7.8C98.6 5.8 99.2 3.8 100.9 2.5C102.6 1.3 104.8 1.3 106.4 2.7L107.2 3.4C121.9 15.7 131 33.1 133 52.2C134.9 71.3 129.4 90.1 117.4 105.2L115 108.2C107.9 117.1 97.2 122.2 85.9 122.2ZM70.7 13.9L59.4 28C51.1 38.3 46.2 50.8 45.2 64C44.2 77.2 47.1 90.2 53.7 101.7L54.4 103C60.4 113.4 71.1 120.1 83 121C94.9 121.9 106.5 116.8 114 107.5L116.4 104.5C128.2 89.7 133.6 71.2 131.8 52.3C130 33.5 121 16.4 106.5 4.2L105.7 3.5C104.2 2.2 102.5 2.6 101.5 3.4C100.5 4.1 99.6 5.6 100.4 7.4L106 21.3C110.9 33.4 111 46.7 106.3 58.8C103.8 65.1 98.1 69.5 91.3 70.1C84.5 70.7 78.1 67.6 74.5 61.8C69.8 54.4 68.6 45.3 71 36.9L76.7 16.9C77.3 14.9 76.1 13.6 75 13C73.8 12.4 72 12.3 70.7 13.9Z" fill="#9179B6"/>
<path d="M67.6 92.7V95.6C67.8 105.3 75.5 113.2 85.3 113.4C95 113.6 103.2 106.1 103.8 96.5L103.9 94.7C92 98 79.2 97.4 67.6 92.7Z" fill="#9F72E0"/>
<path d="M85.8 113.9C85.7 113.9 85.5 113.9 85.4 113.9C75.4 113.7 67.4 105.6 67.2 95.6V92.7C67.2 92.5 67.3 92.3 67.4 92.2C67.6 92.1 67.7 92.1 67.9 92.1C79.3 96.7 92 97.3 103.8 94C104 94 104.2 94 104.3 94.1C104.4 94.2 104.5 94.4 104.5 94.6L104.4 96.4C103.7 106.3 95.6 113.9 85.8 113.9ZM68.2 93.5V95.5C68.3 104.9 75.9 112.5 85.3 112.7C94.7 112.9 102.6 105.7 103.2 96.3L103.3 95.3C91.7 98.5 79.3 97.8 68.2 93.5Z" fill="#9179B6"/>
<path d="M88.6 97.3C79.1 97.3 69.7 94.9 61.2 90.2L58.2 88.5C57.9 88.4 57.8 88 58 87.8C58.2 87.6 58.5 87.4 58.7 87.6L61.7 89.3C77.6 98.1 96.8 98.5 113.1 90.5C113.4 90.4 113.7 90.5 113.8 90.8C113.9 91.1 113.8 91.4 113.5 91.5C105.7 95.4 97.1 97.3 88.6 97.3Z" fill="#9179B6"/>
<path d="M78.5 95.9L78.4 100.1C78.3 104.5 81.8 108.2 86.2 108.3C90.6 108.4 94.3 104.9 94.4 100.5L94.5 96.5C89.2 97 83.8 96.8 78.5 95.9Z" fill="white"/>
<path d="M86.4 108.8C86.3 108.8 86.3 108.8 86.2 108.8C83.9 108.7 81.8 107.8 80.2 106.1C78.6 104.4 77.8 102.3 77.8 100L77.9 95.8C77.9 95.6 78 95.5 78.1 95.4C78.2 95.3 78.4 95.3 78.5 95.3C83.7 96.3 89.1 96.5 94.4 95.9C94.6 95.9 94.7 95.9 94.8 96C94.9 96.1 95 96.3 95 96.4L94.9 100.4C94.8 102.7 93.9 104.8 92.2 106.4C90.7 108 88.6 108.8 86.4 108.8ZM79 96.5L78.9 100.1C78.9 102.1 79.6 104 81 105.4C82.4 106.8 84.2 107.7 86.2 107.7C88.2 107.8 90.1 107 91.5 105.6C92.9 104.2 93.8 102.4 93.8 100.4L93.9 97C89 97.5 84 97.4 79 96.5Z" fill="#9179B6"/>
<path d="M86.2 108.8C85.9 108.8 85.6 108.5 85.7 108.2L86 96.7C86 96.4 86.2 96.2 86.6 96.2C86.9 96.2 87.1 96.5 87.1 96.8L86.8 108.3C86.8 108.6 86.5 108.8 86.2 108.8Z" fill="#9179B6"/>
<path d="M86.7 89.1L78.8 84.3L94.8 84.7L86.7 89.1Z" fill="white"/>
<path d="M86.7 89.6C86.6 89.6 86.5 89.6 86.4 89.5L78.5 84.8C78.3 84.7 78.2 84.4 78.3 84.2C78.4 84 78.6 83.8 78.8 83.8L94.8 84.2C95 84.2 95.3 84.4 95.3 84.6C95.4 84.8 95.2 85.1 95 85.2L86.9 89.6C86.8 89.6 86.8 89.6 86.7 89.6ZM80.8 84.9L86.7 88.4L92.7 85.2L80.8 84.9Z" fill="#9179B6"/>
<path d="M69.6 86.3C70.815 86.3 71.8 85.315 71.8 84.1C71.8 82.885 70.815 81.9 69.6 81.9C68.385 81.9 67.4 82.885 67.4 84.1C67.4 85.315 68.385 86.3 69.6 86.3Z" fill="#9179B6"/>
<path d="M103.9 87.1C105.115 87.1 106.1 86.115 106.1 84.9C106.1 83.685 105.115 82.7 103.9 82.7C102.685 82.7 101.7 83.685 101.7 84.9C101.7 86.115 102.685 87.1 103.9 87.1Z" fill="#9179B6"/>
<path d="M160 106.3C158.5 104.3 155.6 104 153.7 105.5L142.8 114L148.3 121.1L159.2 112.6C161.2 111.1 161.5 108.3 160 106.3Z" fill="#EDE3F0"/>
<path d="M148.3 121.7C148.1 121.7 148 121.6 147.9 121.5L142.4 114.4C142.3 114.3 142.3 114.1 142.3 114C142.3 113.9 142.4 113.7 142.5 113.6L153.9 104.8C154.8 104.1 156 103.7 157.2 103.9C158.4 104 159.4 104.6 160.2 105.6L160.9 106.5C161.6 107.4 162 108.6 161.8 109.8C161.7 111 161.1 112 160.1 112.8L148.7 121.6C148.6 121.6 148.5 121.7 148.3 121.7ZM143.6 114.1L148.5 120.3L159.4 111.8C160.1 111.2 160.6 110.4 160.7 109.6C160.8 108.7 160.6 107.8 160 107.1L159.3 106.2C158.7 105.5 157.9 105 157.1 104.9C156.2 104.8 155.3 105 154.6 105.6L143.6 114.1Z" fill="#9179B6"/>
<path d="M151.8 185.1C146.3 194.2 139.2 202.2 130.8 208.7C122.5 198.2 113.8 188.1 104.7 178.3L103.6 162.3C114 152.8 124.8 143.7 136 135.1C137.2 134.2 138.6 133.8 140.1 134.1C141.6 134.3 143.1 133.9 144.2 133L152.6 126.5L160.2 122.5C162.1 121.5 162.8 119 161.7 117.1C160.6 115.4 158.4 114.8 156.6 115.8L147.8 120.4L143.2 114.5L148.9 107.8C150.3 106.2 150 103.7 148.3 102.5C146.7 101.3 144.5 101.7 143.2 103.2L134.6 113.3L128.2 109C127.3 108.4 126.2 108.1 125.1 108.2C123.7 108.3 122.4 109.1 121.5 110.3C120 112.5 120.6 115.5 122.8 117L126.8 119.7L129.3 122.9C116.3 132.7 103.9 143.1 92.1 154.2C88.3 154.7 84.4 154.7 80.5 154.2C68.6 143.2 56.2 132.7 43.2 122.9L45.7 119.7L49.7 117C51.9 115.5 52.5 112.5 51 110.3C50.2 109 48.8 108.3 47.4 108.2C46.3 108.1 45.3 108.4 44.3 109L37.9 113.3L29.3 103.2C28 101.7 25.8 101.4 24.2 102.5C22.5 103.8 22.2 106.2 23.6 107.8L29.3 114.5L24.7 120.4L15.9 115.8C14.1 114.9 11.8 115.4 10.8 117.1C9.60001 119 10.3 121.5 12.3 122.5L19.9 126.5L28.3 133C29.5 133.9 31 134.3 32.4 134.1C33.9 133.9 35.3 134.2 36.5 135.1C47.7 143.7 58.5 152.7 68.9 162.3L67.8 178.3C58.7 188 50 198.2 41.7 208.7C33.3 202.1 26.2 194.1 20.7 185.1C16.9 178.8 8.90001 176.3 2.10001 179.2C9.60001 197 22 212.2 37.8 223.1L44.5 227.8L48.5 222.5C59 208.8 70.2 195.7 82.1 183.3C84.8 183.5 87.5 183.5 90.2 183.3C102.1 195.7 113.3 208.8 123.8 222.5L127.8 227.8L134.5 223.1C150.3 212.1 162.7 196.9 170.2 179.2C163.6 176.3 155.6 178.8 151.8 185.1Z" fill="#EDE3F0"/>
<path d="M128 228.3C127.8 228.3 127.7 228.2 127.6 228.1L123.6 222.8C113.2 209.3 102 196.2 90.2 183.8C87.6 184 85.1 184 82.5 183.8C70.7 196.1 59.5 209.3 49.1 222.8L45.1 228.1C44.9 228.3 44.6 228.4 44.4 228.2L37.7 223.5C21.8 212.4 9.4 197.2 1.8 179.3C1.7 179 1.8 178.7 2.1 178.6C9.1 175.6 17.4 178.3 21.3 184.8C26.7 193.7 33.6 201.5 41.7 208C49.8 197.8 58.4 187.7 67.3 178.2L68.4 162.7C58.1 153.2 47.2 144.1 36.2 135.7C35.2 134.9 33.8 134.6 32.5 134.8C30.9 135 29.2 134.6 27.9 133.6L19.6 127.1L12 123.1C10.9 122.5 10.1 121.6 9.8 120.4C9.5 119.2 9.60001 118 10.3 117C11.5 115 14.1 114.4 16.2 115.5L24.6 119.9L28.7 114.7L23.3 108.4C22.5 107.5 22.2 106.3 22.3 105.2C22.4 104 23 103 24 102.3C25.8 101 28.3 101.3 29.8 103.1L38.1 112.9L44.1 108.9C45.1 108.2 46.3 107.9 47.5 108C49.1 108.1 50.6 109 51.5 110.4C53.1 112.9 52.5 116.2 50 117.8L46.1 120.4L44 123.1C56.7 132.7 69 143.1 80.7 154C84.4 154.5 88.1 154.5 91.8 154C103.5 143.1 115.9 132.8 128.5 123.1L126.4 120.4L122.5 117.8C120 116.2 119.4 112.8 121 110.4C121.9 109 123.4 108.2 125 108C126.2 107.9 127.4 108.2 128.4 108.9L134.4 112.9L142.7 103.1C144.2 101.4 146.7 101 148.5 102.3C149.5 103 150 104 150.2 105.2C150.3 106.4 150 107.5 149.2 108.4L143.8 114.7L147.9 119.9L156.3 115.5C158.4 114.4 161 115.1 162.2 117C162.8 118 163 119.3 162.7 120.4C162.4 121.6 161.6 122.5 160.5 123.1L152.9 127.1L144.6 133.6C143.3 134.6 141.6 135 140 134.8C138.7 134.6 137.4 134.9 136.3 135.7C125.3 144.1 114.5 153.2 104.1 162.7L105.2 178.2C114.1 187.8 122.7 197.8 130.8 208C139 201.5 145.8 193.8 151.2 184.8C155.1 178.3 163.4 175.7 170.4 178.6C170.5 178.7 170.6 178.8 170.7 178.9C170.8 179 170.8 179.2 170.7 179.3C163.1 197.2 150.7 212.4 134.8 223.5L128.1 228.2C128.2 228.3 128.1 228.3 128 228.3ZM90.3 182.8C90.4 182.8 90.6 182.9 90.7 183C102.6 195.4 113.9 208.6 124.4 222.3L128.1 227.1L134.4 222.7C150 211.9 162.2 196.9 169.7 179.5C163.3 177.1 155.9 179.6 152.3 185.4C146.7 194.6 139.6 202.6 131.2 209.2C131 209.4 130.6 209.3 130.4 209.1C122.2 198.7 113.4 188.5 104.4 178.8C104.3 178.7 104.3 178.6 104.3 178.5L103.2 162.5C103.2 162.3 103.3 162.2 103.4 162.1C113.8 152.5 124.7 143.4 135.8 134.9C137.1 133.9 138.7 133.5 140.3 133.8C141.6 134 143 133.7 144 132.8L152.4 126.3C152.4 126.3 152.5 126.3 152.5 126.2L160.1 122.2C160.9 121.8 161.5 121.1 161.7 120.2C161.9 119.3 161.8 118.4 161.3 117.6C160.4 116.1 158.5 115.6 156.9 116.5L148.1 121.1C147.9 121.2 147.6 121.2 147.4 121L142.8 115.1C142.6 114.9 142.6 114.6 142.8 114.4L148.5 107.7C149.1 107 149.3 106.2 149.2 105.3C149.1 104.4 148.7 103.7 148 103.1C146.7 102.1 144.8 102.4 143.7 103.7L135.1 113.8C134.9 114 134.6 114.1 134.4 113.9L128 109.6C127.2 109.1 126.2 108.8 125.3 108.9C124 109 122.8 109.7 122.1 110.8C120.8 112.8 121.3 115.4 123.3 116.7L127.3 119.4L127.4 119.5L129.9 122.7C130 122.8 130 123 130 123.1C130 123.2 129.9 123.4 129.8 123.5C117 133.2 104.5 143.7 92.6 154.7C92.5 154.8 92.4 154.8 92.3 154.8C88.4 155.3 84.5 155.3 80.6 154.8C80.5 154.8 80.4 154.7 80.3 154.7C68.4 143.7 55.9 133.2 43.1 123.5C43 123.4 42.9 123.3 42.9 123.1C42.9 123 42.9 122.8 43 122.7L45.5 119.5L45.6 119.4L49.6 116.7C51.6 115.4 52.1 112.7 50.8 110.8C50.1 109.7 48.9 109 47.6 108.9C46.6 108.8 45.7 109.1 44.9 109.6L38.5 113.9C38.3 114.1 38 114 37.8 113.8L29.2 103.7C28.1 102.4 26.2 102.1 24.9 103.1C24.2 103.6 23.8 104.4 23.7 105.3C23.6 106.2 23.9 107 24.4 107.7L30.1 114.4C30.3 114.6 30.3 114.9 30.1 115.1L25.5 121C25.3 121.2 25 121.3 24.8 121.1L16 116.5C14.4 115.7 12.5 116.2 11.6 117.6C11.1 118.4 11 119.3 11.2 120.2C11.4 121.1 12 121.8 12.8 122.2L20.4 126.2C20.4 126.2 20.5 126.2 20.5 126.3L28.9 132.8C30 133.6 31.3 134 32.6 133.8C34.2 133.5 35.8 134 37.1 134.9C48.2 143.4 59.1 152.5 69.5 162.1C69.6 162.2 69.7 162.4 69.7 162.5L68.6 178.5C68.6 178.6 68.5 178.7 68.5 178.8C59.4 188.5 50.7 198.7 42.5 209.1C42.3 209.3 42 209.4 41.7 209.2C33.2 202.6 26.1 194.6 20.6 185.4C17 179.5 9.6 177 3.2 179.5C10.7 196.9 22.9 211.9 38.5 222.7L44.8 227.1L48.5 222.3C58.9 208.7 70.3 195.5 82.2 183C82.3 182.9 82.5 182.8 82.6 182.8C84.9 183 87.6 183 90.3 182.8Z" fill="#9179B6"/>
<path d="M22.1 124.4C22 124.4 21.9 124.4 21.8 124.3C21.6 124.1 21.5 123.8 21.7 123.5L30.4 112.3C30.6 112.1 30.9 112 31.2 112.2C31.4 112.4 31.5 112.7 31.3 113L22.6 124.2C22.4 124.3 22.3 124.4 22.1 124.4Z" fill="#9179B6"/>
<path d="M150.4 124.4C150.2 124.4 150.1 124.3 150 124.2L141.3 113C141.1 112.8 141.2 112.4 141.4 112.2C141.6 112 142 112.1 142.2 112.3L150.9 123.5C151.1 123.7 151 124.1 150.8 124.3C150.7 124.3 150.6 124.4 150.4 124.4Z" fill="#9179B6"/>
</svg>
