<svg width="168" height="68" viewBox="0 0 168 68" fill="none" xmlns="http://www.w3.org/2000/svg">
<path d="M24.9337 30.5958C24.4466 32.2979 23.7158 33.8784 22.7415 35.2158C21.6455 36.5532 20.3058 37.6474 18.8444 38.3769C17.0176 39.228 15.069 39.5927 12.9986 39.4711C11.0501 39.4711 8.9797 39.1064 7.27469 38.3769C5.69147 37.769 4.35183 36.6748 3.37754 35.3374C2.40325 34 1.55074 32.2979 1.18539 30.7173C0.69824 28.7721 0.576454 26.9483 0.576454 25.0031V1.53801H8.9797V24.152C8.9797 25.1246 8.9797 26.0973 9.22327 27.0699C9.34506 27.921 9.46685 28.6505 9.83221 29.38C10.0758 29.9879 10.5629 30.4742 11.0501 30.9605C11.659 31.3252 12.3897 31.5684 13.1204 31.5684C13.8511 31.5684 14.5819 31.4468 15.1908 30.9605C15.6779 30.5958 16.1651 29.9879 16.4087 29.38C16.774 28.6505 16.8958 27.7994 17.0176 27.0699C17.1394 26.0973 17.2612 25.1246 17.2612 24.152V1.53801H25.6644V24.8815C25.6644 26.8268 25.4208 28.772 24.9337 30.5958ZM46.8552 38.6201L41.7402 26.3404L36.6252 38.6201H27.8566L36.9905 19.1672L28.7091 1.53801H37.4777L41.9838 12.845L46.6116 1.53801H55.2585L46.8552 19.1672L56.111 38.6201H46.8552ZM89.4804 20.1398C89.4804 22.693 89.2368 25.2462 88.5061 27.6778C88.0189 29.7447 87.0447 31.8116 85.705 33.5137C84.4872 35.0942 82.7821 36.4316 80.9553 37.2827C78.7632 38.2553 76.4492 38.6201 74.0135 38.6201H63.5399V1.53801H74.0135C76.3275 1.53801 78.7632 1.90275 80.9553 2.87539C82.9039 3.72646 84.6089 4.94226 85.8268 6.64439C87.1664 8.34652 88.1407 10.4134 88.6279 12.4803C89.2368 15.0334 89.6022 17.5866 89.4804 20.1398ZM81.0771 20.1398C81.0771 16.3708 80.4682 13.5745 79.1286 11.6292C77.7889 9.6839 76.2057 8.83284 74.1353 8.83284H72.0649V31.3252H74.1353C76.2057 31.3252 77.7889 30.3526 79.1286 28.4073C80.4682 26.462 81.0771 23.7872 81.0771 20.1398ZM110.549 38.6201L109.088 31.8116H100.685L99.2233 38.6201H90.82L99.8322 1.53801H110.428L119.44 38.6201H110.549ZM105.069 9.56232H104.825L101.659 25.3678H107.992L105.069 9.56232ZM136.003 25.2462V38.6201H127.721V25.2462L118.344 1.53801H127.356L131.74 16.8572H131.862L136.49 1.53801H145.38L136.003 25.2462ZM163.039 10.4134C162.43 9.6839 161.7 9.076 160.847 8.71126C159.995 8.34652 159.142 8.10336 158.168 8.10336C157.194 8.10336 156.341 8.4681 155.61 8.95442C154.88 9.56232 154.514 10.535 154.514 11.8724C154.514 12.845 154.88 13.9392 155.61 14.5471C156.706 15.3982 157.802 16.1277 159.02 16.614C159.873 16.9787 160.725 17.5866 161.7 18.073C162.674 18.6809 163.526 19.4103 164.257 20.1398C165.11 20.9909 165.719 22.0851 166.206 23.1793C166.693 24.5167 167.058 25.9757 166.936 27.3131C166.936 29.1368 166.693 30.9605 165.962 32.541C164.866 35.3374 162.552 37.5258 159.629 38.6201C158.29 39.1064 156.706 39.3496 155.245 39.3496C153.175 39.3496 151.104 38.9848 149.156 38.1338C147.572 37.4043 145.989 36.4316 144.771 35.2158L149.034 28.8936C149.886 29.7447 150.739 30.4742 151.835 30.9605C152.809 31.4468 153.905 31.69 155.001 31.69C155.976 31.69 156.95 31.3252 157.559 30.7173C158.29 29.9879 158.655 29.0152 158.655 27.921C158.655 26.8268 158.29 25.7325 157.437 25.0031C156.341 24.152 155.123 23.3009 153.783 22.693C152.809 22.2067 151.835 21.7204 150.982 21.1125C150.13 20.5046 149.277 19.7751 148.668 18.924C147.938 18.073 147.451 17.1003 147.085 16.0061C146.72 14.6687 146.476 13.3313 146.476 11.9939C146.476 10.1702 146.842 8.34652 147.572 6.64439C148.181 5.307 149.156 3.96962 150.252 2.99698C151.348 2.02433 152.566 1.41643 153.905 0.930106C155.245 0.443784 156.585 0.200623 157.924 0.200623C159.751 0.200623 161.578 0.565364 163.405 1.17327C164.988 1.78117 166.327 2.75381 167.424 3.84804L163.039 10.4134ZM40.8877 47.8602V51.6292H35.7727V67.0699H31.023V51.6292H25.908V47.8602H40.8877ZM67.6806 57.4651C67.6806 58.8024 67.4371 60.0183 67.0717 61.3556C66.2192 63.7873 64.3924 65.611 62.0785 66.7052C60.7388 67.1915 59.3992 67.5562 57.9378 67.5562C56.4763 67.5562 55.1367 67.3131 53.797 66.7052C51.4831 65.7325 49.5345 63.7872 48.682 61.4772C47.8295 59.0456 47.8295 56.2493 48.682 53.8176C49.5345 51.386 51.3613 49.4407 53.6752 48.4681C55.0149 47.9818 56.4763 47.617 57.816 47.617C59.2774 47.617 60.6171 47.8602 61.9567 48.4681C63.1746 48.9544 64.1488 49.6839 65.0014 50.6565C65.8539 51.6292 66.4628 52.6018 66.9499 53.8176C67.4371 54.9119 67.6806 56.1277 67.6806 57.4651ZM57.9378 63.6657C58.6685 63.6657 59.521 63.5441 60.1299 63.1793C60.7388 62.9362 61.3478 62.4499 61.7131 61.9635C62.2003 61.3556 62.4438 60.7477 62.6874 60.0182C63.1746 58.4377 63.1746 56.614 62.6874 55.0335C62.4438 54.304 62.2003 53.6961 61.7131 53.0882C61.3478 52.6018 60.7388 52.1155 60.1299 51.8724C58.6685 51.2645 57.0853 51.2645 55.7456 51.8724C55.1367 52.1155 54.5277 52.6018 54.1624 53.0882C53.6752 53.6961 53.4317 54.304 53.1881 55.0335C52.9445 55.8845 52.8227 56.7356 52.8227 57.4651C52.8227 58.3161 52.9445 59.1672 53.1881 60.0182C53.4317 60.7477 53.6752 61.3556 54.1624 61.9635C54.5277 62.4499 55.1367 62.9362 55.7456 63.1793C56.3545 63.5441 57.0853 63.6657 57.9378 63.6657ZM76.3275 67.0699V47.8602H81.0771V57.1003L87.1664 47.8602H92.525L86.0704 57.3435L93.0122 67.0699H87.2882L81.0771 57.7082V67.0699H76.3275ZM109.575 60.1398V67.0699H104.825V60.1398L98.4926 47.9818H103.608L107.261 56.0061L110.915 47.9818H116.03C115.908 47.9818 109.575 60.1398 109.575 60.1398ZM142.092 57.4651C142.092 58.8024 141.848 60.0183 141.483 61.3556C141.118 62.5714 140.387 63.5441 139.535 64.5167C138.682 65.4894 137.586 66.2189 136.49 66.7052C135.15 67.1915 133.811 67.5562 132.349 67.5562C130.888 67.5562 129.548 67.3131 128.208 66.7052C125.894 65.7325 124.068 63.7873 123.215 61.3556C122.363 58.924 122.363 56.1277 123.215 53.6961C124.068 51.2645 125.894 49.3192 128.208 48.3465C129.548 47.8602 130.888 47.4955 132.349 47.617C133.811 47.617 135.15 47.8602 136.49 48.4681C137.708 48.9544 138.682 49.6839 139.535 50.6565C140.387 51.6292 140.996 52.6018 141.483 53.8176C141.848 54.9119 142.092 56.2493 142.092 57.4651ZM132.349 63.6657C133.08 63.6657 133.811 63.5441 134.541 63.1793C135.15 62.9362 135.759 62.4499 136.124 61.9635C136.612 61.3556 136.855 60.7477 137.099 60.0182C137.464 58.4377 137.464 56.614 137.099 55.0335C136.977 54.304 136.612 53.6961 136.124 53.0882C135.637 52.6018 135.15 52.1155 134.541 51.8724C133.08 51.2645 131.497 51.2645 130.157 51.8724C129.548 52.1155 128.939 52.6018 128.574 53.0882C128.087 53.6961 127.843 54.304 127.599 55.0335C127.234 56.614 127.234 58.4377 127.599 60.0182C127.843 60.7477 128.087 61.3556 128.574 61.9635C128.939 62.4499 129.548 62.9362 130.157 63.1793C130.766 63.5441 131.497 63.6657 132.349 63.6657Z" fill="white"/>
</svg>
