<svg width="48" height="63" viewBox="0 0 48 63" fill="none" xmlns="http://www.w3.org/2000/svg">
<g clip-path="url(#clip0)">
<path d="M14.1953 6.87524L8.45048 14.047C-0.166736 24.851 -1.29717 39.806 5.57808 51.796C5.7078 52.0184 5.83752 52.2407 5.96724 52.4631C12.5274 63.8601 28.5017 65.0647 36.6927 54.7796C37.1004 54.2792 37.5081 53.7603 37.9158 53.26C50.3876 37.5822 48.1082 14.8439 32.764 1.96436L32.3563 1.61225C30.7626 0.277975 28.4461 1.96436 29.2245 3.89165L32.0784 10.9337C34.5245 16.975 34.5616 23.7205 32.2081 29.7989C29.5766 36.5444 20.3849 37.4154 16.5303 31.2814C14.1953 27.5751 13.5652 23.0534 14.7698 18.8467L17.6793 8.67282C18.2723 6.57874 15.5666 5.17033 14.1953 6.87524Z" fill="#EBE2EF" stroke="#8B74AD" stroke-width="2.24585" stroke-miterlimit="10" stroke-linecap="round" stroke-linejoin="round"/>
<path d="M14.1953 6.87524L8.45048 14.047C-0.166736 24.851 -1.29717 39.806 5.57808 51.796C5.7078 52.0184 5.83752 52.2407 5.96724 52.4631C12.5274 63.8601 28.5017 65.0647 36.6927 54.7796C37.1004 54.2792 37.5081 53.7603 37.9158 53.26C50.3876 37.5822 48.1082 14.8439 32.764 1.96436L32.3563 1.61225C30.7626 0.277975 28.4461 1.96436 29.2245 3.89165L32.0784 10.9337C34.5245 16.975 34.5616 23.7205 32.2081 29.7989C29.5766 36.5444 20.3849 37.4154 16.5303 31.2814C14.1953 27.5751 13.5652 23.0534 14.7698 18.8467L17.6793 8.67282C18.2723 6.57874 15.5666 5.17033 14.1953 6.87524Z" fill="#EDE3F0" stroke="#9179B6" stroke-width="0.561462" stroke-miterlimit="10" stroke-linecap="round" stroke-linejoin="round"/>
<path d="M22.8309 45.6064L18.8096 43.1973L26.9635 43.3826L22.8309 45.6064Z" fill="white" stroke="#8B74AD" stroke-width="0.561462" stroke-miterlimit="10" stroke-linecap="round" stroke-linejoin="round"/>
<path d="M31.5965 44.6057C32.2106 44.6057 32.7084 44.1079 32.7084 43.4938C32.7084 42.8797 32.2106 42.3819 31.5965 42.3819C30.9824 42.3819 30.4846 42.8797 30.4846 43.4938C30.4846 44.1079 30.9824 44.6057 31.5965 44.6057Z" fill="#8B74AD"/>
<path d="M16.7155 37.0262C16.2337 37.9158 15.2515 38.4161 14.2508 38.2679L14.1396 38.2493" stroke="#8B74AD" stroke-width="0.561462" stroke-miterlimit="10" stroke-linecap="round" stroke-linejoin="round"/>
<path d="M29.8916 37.0262C30.3734 37.9158 31.3556 38.4161 32.3563 38.2679L32.4675 38.2493" stroke="#8B74AD" stroke-width="0.561462" stroke-miterlimit="10" stroke-linecap="round" stroke-linejoin="round"/>
<path d="M14.2323 44.198C14.8463 44.198 15.3442 43.7002 15.3442 43.0861C15.3442 42.472 14.8463 41.9742 14.2323 41.9742C13.6182 41.9742 13.1204 42.472 13.1204 43.0861C13.1204 43.7002 13.6182 44.198 14.2323 44.198Z" fill="#8B74AD"/>
<path d="M29.558 52.7782C25.1289 50.7582 20.1068 50.4988 15.511 51.9998" stroke="#8B74AD" stroke-width="0.561462" stroke-miterlimit="10" stroke-linecap="round" stroke-linejoin="round"/>
</g>
<defs>
<clipPath id="clip0">
<rect width="47.0519" height="62.8964" fill="white"/>
</clipPath>
</defs>
</svg>
