<svg width="48" height="63" viewBox="0 0 48 63" fill="none" xmlns="http://www.w3.org/2000/svg">
<g clip-path="url(#clip0)">
<path d="M14.1952 6.87524L8.45042 14.047C-0.166797 24.851 -1.29723 39.806 5.57802 51.796C5.70774 52.0184 5.83746 52.2407 5.96718 52.4631C12.5274 63.8601 28.5017 65.0647 36.6927 54.7796C37.1004 54.2792 37.5081 53.7603 37.9158 53.26C50.3876 37.5822 48.1082 14.8439 32.764 1.96436L32.3563 1.61225C30.7625 0.277975 28.4461 1.96436 29.2244 3.89165L32.0783 10.9337C34.5245 16.975 34.5615 23.7205 32.208 29.7989C29.5765 36.5444 20.3848 37.4154 16.5302 31.2814C14.1952 27.5751 13.5652 23.0534 14.7697 18.8467L17.6792 8.67282C18.2722 6.57874 15.5666 5.17033 14.1952 6.87524Z" fill="#EBE2EF" stroke="#8B74AD" stroke-width="2.24585" stroke-miterlimit="10" stroke-linecap="round" stroke-linejoin="round"/>
<path d="M14.1952 6.87524L8.45042 14.047C-0.166797 24.851 -1.29723 39.806 5.57802 51.796C5.70774 52.0184 5.83746 52.2407 5.96718 52.4631C12.5274 63.8601 28.5017 65.0647 36.6927 54.7796C37.1004 54.2792 37.5081 53.7603 37.9158 53.26C50.3876 37.5822 48.1082 14.8439 32.764 1.96436L32.3563 1.61225C30.7625 0.277975 28.4461 1.96436 29.2244 3.89165L32.0783 10.9337C34.5245 16.975 34.5615 23.7205 32.208 29.7989C29.5765 36.5444 20.3848 37.4154 16.5302 31.2814C14.1952 27.5751 13.5652 23.0534 14.7697 18.8467L17.6792 8.67282C18.2722 6.57874 15.5666 5.17033 14.1952 6.87524Z" fill="#EBE2EF" stroke="#8B74AD" stroke-width="0.561462" stroke-miterlimit="10" stroke-linecap="round" stroke-linejoin="round"/>
<path d="M12.8424 47.1075L12.8609 48.5715C12.9351 53.5009 16.9008 57.4852 21.8303 57.5964C26.7597 57.7076 30.8922 53.9086 31.2073 48.9977L31.2629 48.0896C25.203 49.7946 18.7169 49.461 12.8424 47.1075Z" fill="#8B74AD" stroke="#8B74AD" stroke-width="0.561462" stroke-miterlimit="10" stroke-linecap="round" stroke-linejoin="round"/>
<path d="M8.15393 44.7725L9.69206 45.6249C17.846 50.1281 27.7048 50.369 36.0626 46.255" stroke="#8B74AD" stroke-width="0.561462" stroke-miterlimit="10" stroke-linecap="round" stroke-linejoin="round"/>
<path d="M18.3648 48.7012L18.3093 50.8509C18.2537 53.0932 20.0327 54.9649 22.2936 55.0205C24.5544 55.0761 26.4076 53.297 26.4632 51.0362L26.5188 49.0162C23.7946 49.2942 21.0519 49.183 18.3648 48.7012Z" fill="white" stroke="#8B74AD" stroke-width="0.561462" stroke-miterlimit="10" stroke-linecap="round" stroke-linejoin="round"/>
<path d="M22.2936 55.002L22.4233 49.146" stroke="#8B74AD" stroke-width="0.561462" stroke-miterlimit="10" stroke-linecap="round" stroke-linejoin="round"/>
<path d="M22.5159 45.2358L18.4946 42.8267L26.6485 43.012L22.5159 45.2358Z" fill="white" stroke="#8B74AD" stroke-width="0.561462" stroke-miterlimit="10" stroke-linecap="round" stroke-linejoin="round"/>
<path d="M13.8617 43.8274C14.4757 43.8274 14.9736 43.3296 14.9736 42.7155C14.9736 42.1014 14.4757 41.6036 13.8617 41.6036C13.2476 41.6036 12.7498 42.1014 12.7498 42.7155C12.7498 43.3296 13.2476 43.8274 13.8617 43.8274Z" fill="#8B74AD"/>
<path d="M31.2815 44.2351C31.8955 44.2351 32.3934 43.7372 32.3934 43.1232C32.3934 42.5091 31.8955 42.0113 31.2815 42.0113C30.6674 42.0113 30.1696 42.5091 30.1696 43.1232C30.1696 43.7372 30.6674 44.2351 31.2815 44.2351Z" fill="#8B74AD"/>
</g>
<defs>
<clipPath id="clip0">
<rect width="47.0519" height="62.8964" fill="white"/>
</clipPath>
</defs>
</svg>
