<svg width="375" height="255" viewBox="0 0 375 255" fill="none" xmlns="http://www.w3.org/2000/svg">
<g clip-path="url(#clip0)">
<path opacity="0.354684" d="M292.644 224.453L290.171 234.229C289.936 235.157 290.823 235.977 291.731 235.67L299.663 232.984C299.918 232.897 300.137 232.728 300.285 232.502L306.642 222.821C307.237 221.916 306.431 220.745 305.373 220.977L293.557 223.568C293.11 223.666 292.757 224.009 292.644 224.453Z" fill="white"/>
<path opacity="0.297126" d="M256.167 147.667L254.372 145.68C247.992 138.649 243.779 134.012 244.281 128.874C244.69 124.688 248.3 121.72 252.486 122.128C254.851 122.359 257.014 123.682 258.325 125.566C259.977 123.971 262.354 123.092 264.719 123.323C268.906 123.732 271.874 127.342 271.465 131.528C270.963 136.666 265.933 140.401 258.312 146.079L256.167 147.667Z" fill="white"/>
<rect opacity="0.836534" x="16.6051" y="28.3395" width="16.9198" height="16.9198" rx="3.62567" transform="rotate(40.0562 16.6051 28.3395)" fill="white"/>
<path opacity="0.973452" d="M106.601 210.005C104.126 209.898 102.897 208.373 102.962 206.924C103.027 205.477 104.386 204.066 106.859 204.176C107.825 204.219 108.229 203.884 108.238 203.738C108.243 203.59 107.868 203.219 106.905 203.178C104.431 203.068 103.202 201.543 103.267 200.096C103.33 198.647 104.69 197.239 107.165 197.347C108.13 197.391 108.536 197.055 108.541 196.908C108.547 196.761 108.173 196.391 107.209 196.347C106.544 196.318 106.025 195.753 106.055 195.088C106.087 194.421 106.65 193.904 107.318 193.934C109.79 194.043 111.021 195.566 110.957 197.016C110.892 198.463 109.533 199.872 107.057 199.763C106.091 199.72 105.687 200.054 105.682 200.202C105.674 200.349 106.048 200.72 107.011 200.763C109.487 200.872 110.716 202.395 110.651 203.846C110.587 205.293 109.228 206.702 106.753 206.594C105.79 206.55 105.385 206.887 105.377 207.033C105.372 207.181 105.745 207.551 106.709 207.594C107.377 207.623 107.892 208.188 107.863 208.854C107.833 209.518 107.268 210.035 106.601 210.005Z" fill="white"/>
<path opacity="0.933966" d="M75.7935 0.0887596L66.4144 -3.615C65.5235 -3.96678 64.597 -3.19196 64.7856 -2.25293L66.4346 5.95758C66.4877 6.22196 66.6277 6.461 66.8323 6.63664L75.6202 14.1799C76.4423 14.8856 77.706 14.2365 77.6113 13.1572L76.5536 1.10717C76.5135 0.651154 76.2193 0.256893 75.7935 0.0887596Z" fill="white"/>
<path opacity="0.179701" d="M290.33 239.365L289.4 236.853C286.088 227.956 283.899 222.085 286.273 217.501C288.207 213.766 292.662 212.351 296.397 214.286C298.507 215.379 300.024 217.41 300.542 219.646C302.667 218.779 305.201 218.845 307.311 219.938C311.046 221.872 312.461 226.327 310.527 230.062C308.153 234.646 302.095 236.246 292.911 238.687L290.33 239.365Z" fill="white"/>
<circle opacity="0.162048" cx="258.521" cy="212.945" r="7.85562" transform="rotate(62.8727 258.521 212.945)" fill="white"/>
<rect opacity="0.60482" x="255.888" y="156.446" width="16.9198" height="16.9198" rx="3.62567" transform="rotate(-87.2124 255.888 156.446)" fill="white"/>
<path opacity="0.148161" d="M28.9188 141.017L22.9917 149.175C22.4288 149.95 22.9479 151.04 23.9042 151.092L32.2665 151.544C32.5358 151.559 32.8022 151.483 33.0233 151.328L42.5209 144.701C43.4094 144.081 43.0962 142.695 42.0274 142.518L30.0946 140.535C29.643 140.46 29.1878 140.646 28.9188 141.017Z" fill="white"/>
<path opacity="0.382847" d="M323.652 1.32391C323.105 2.07577 321.948 1.95251 321.571 1.10205L315.631 -12.2928C315.254 -13.1433 315.939 -14.0831 316.864 -13.9845L331.434 -12.4315C332.359 -12.3329 332.831 -11.2698 332.283 -10.5179L323.652 1.32391Z" fill="white"/>
<path opacity="0.347145" d="M177.589 249.18L175.02 248.421C165.91 245.75 159.897 243.99 157.645 239.345C155.811 235.56 157.343 231.144 161.128 229.309C163.266 228.273 165.801 228.274 167.903 229.197C168.48 226.975 170.05 224.985 172.188 223.949C175.973 222.114 180.389 223.646 182.224 227.431C184.475 232.077 182.131 237.887 178.59 246.706L177.589 249.18Z" fill="white"/>
<path opacity="0.811322" d="M100.523 220.87L103.11 220.177C112.277 217.705 118.325 216.07 122.669 218.859C126.208 221.132 127.204 225.698 124.931 229.238C123.647 231.237 121.484 232.559 119.209 232.867C119.876 235.064 119.574 237.581 118.291 239.58C116.018 243.12 111.451 244.115 107.912 241.843C103.568 239.054 102.537 232.874 100.959 223.503L100.523 220.87Z" fill="white"/>
<circle opacity="0.973477" cx="169.028" cy="217.992" r="7.85562" transform="rotate(-51.7189 169.028 217.992)" fill="white"/>
<path opacity="0.992392" d="M262.654 243.419L263.926 241.063C268.421 232.7 271.385 227.18 276.395 225.936C280.477 224.922 284.481 227.333 285.495 231.415C286.067 233.722 285.543 236.202 284.205 238.068C286.261 239.091 287.884 241.038 288.457 243.344C289.47 247.427 287.059 251.43 282.977 252.444C277.967 253.688 272.765 250.195 264.868 244.91L262.654 243.419Z" fill="white"/>
<path opacity="0.78556" d="M148.19 144.315L140.22 150.492C139.463 151.079 139.656 152.271 140.56 152.588L148.463 155.359C148.718 155.448 148.995 155.449 149.25 155.363L160.221 151.653C161.248 151.306 161.334 149.888 160.358 149.419L149.454 144.181C149.041 143.983 148.552 144.035 148.19 144.315Z" fill="white"/>
<rect opacity="0.725465" x="326.01" y="76.2644" width="9.75435" height="9.75435" rx="3.62567" transform="rotate(83.6606 326.01 76.2644)" fill="white"/>
<rect opacity="0.42976" x="61.3102" y="99.6443" width="16.9198" height="16.9198" rx="3.62567" transform="rotate(179.493 61.3102 99.6443)" fill="white"/>
<rect opacity="0.124355" x="4.508" y="164.906" width="16.9198" height="16.9198" rx="3.62567" transform="rotate(70.4782 4.508 164.906)" fill="white"/>
<rect opacity="0.612702" x="309.064" y="131.067" width="16.9198" height="16.9198" rx="3.62567" transform="rotate(-34.4792 309.064 131.067)" fill="white"/>
<rect opacity="0.248917" x="301.898" y="89.0041" width="16.9198" height="16.9198" rx="3.62567" transform="rotate(150.591 301.898 89.0041)" fill="white"/>
<rect opacity="0.01" x="79.4385" y="44.0508" width="16.9198" height="16.9198" rx="3.62567" transform="rotate(-164.282 79.4385 44.0508)" fill="white"/>
<rect opacity="0.0177086" x="4.508" y="31.9652" width="16.9198" height="16.9198" rx="3.62567" transform="rotate(70.4782 4.508 31.9652)" fill="white"/>
<rect opacity="0.351352" x="356.198" y="86.3502" width="16.9198" height="16.9198" rx="3.62567" transform="rotate(88.7321 356.198 86.3502)" fill="white"/>
<rect opacity="0.807555" x="228.091" y="253.131" width="16.9198" height="16.9198" rx="3.62567" transform="rotate(179.493 228.091 253.131)" fill="white"/>
<rect opacity="0.689384" x="223.257" y="145.569" width="16.9198" height="16.9198" rx="3.62567" transform="rotate(90.2518 223.257 145.569)" fill="white"/>
<rect opacity="0.7269" x="347.738" y="18.6711" width="16.9198" height="16.9198" rx="3.62567" transform="rotate(-133.86 347.738 18.6711)" fill="white"/>
<rect opacity="0.414834" x="332.027" y="244.671" width="16.9198" height="16.9198" rx="3.62567" transform="rotate(-33.4649 332.027 244.671)" fill="white"/>
<rect opacity="0.396291" x="10.5508" y="242.254" width="16.9198" height="16.9198" rx="3.62567" transform="rotate(-128.283 10.5508 242.254)" fill="white"/>
<rect opacity="0.37213" x="-16.0374" y="163.698" width="16.9198" height="16.9198" rx="3.62567" transform="rotate(-95.8322 -16.0374 163.698)" fill="white"/>
<rect opacity="0.874192" x="346.529" y="193.912" width="16.9198" height="16.9198" rx="3.62567" transform="rotate(176.45 346.529 193.912)" fill="white"/>
<rect opacity="0.170281" x="294.562" y="58.5534" width="16.9198" height="16.9198" rx="3.62567" transform="rotate(-72.0014 294.562 58.5534)" fill="white"/>
<rect opacity="0.872248" x="364.658" y="150.404" width="16.9198" height="16.9198" rx="3.62567" transform="rotate(16.7307 364.658 150.404)" fill="white"/>
<rect opacity="0.249363" x="96.7752" y="67.0133" width="16.9198" height="16.9198" rx="3.62567" transform="rotate(61.8584 96.7752 67.0133)" fill="white"/>
<rect opacity="0.920674" x="133.824" y="250.714" width="16.9198" height="16.9198" rx="3.62567" transform="rotate(-117.634 133.824 250.714)" fill="white"/>
<path opacity="0.1909" d="M60.3163 229.791C60.3067 230.721 59.2936 231.292 58.4928 230.819L45.8791 223.362C45.0782 222.888 45.0902 221.725 45.9007 221.269L58.6653 214.073C59.4758 213.616 60.4769 214.208 60.4673 215.139L60.3163 229.791Z" fill="white"/>
<path opacity="0.648578" d="M294.157 221.021C293.229 221.089 292.575 220.128 292.98 219.29L299.351 206.095C299.756 205.257 300.915 205.171 301.439 205.941L309.68 218.056C310.204 218.825 309.698 219.873 308.77 219.941L294.157 221.021Z" fill="white"/>
<path opacity="0.362227" d="M284.419 39.3369C283.663 39.8793 282.603 39.4001 282.511 38.4743L281.066 23.8928C280.974 22.967 281.919 22.289 282.766 22.6724L296.117 28.7112C296.965 29.0946 297.08 30.2518 296.324 30.7942L284.419 39.3369Z" fill="white"/>
<path opacity="0.0353813" d="M239.055 91.5339C239.776 90.9458 240.863 91.3585 241.012 92.2769L243.358 106.741C243.507 107.659 242.606 108.394 241.736 108.064L228.037 102.864C227.167 102.534 226.981 101.386 227.702 100.797L239.055 91.5339Z" fill="white"/>
<path opacity="0.842532" d="M142.258 219.267C141.332 219.179 140.848 218.122 141.387 217.363L149.877 205.421C150.416 204.662 151.574 204.772 151.961 205.618L158.059 218.942C158.446 219.788 157.772 220.736 156.846 220.648L142.258 219.267Z" fill="white"/>
<path opacity="0.13668" d="M89.0101 120.523C89.1968 121.435 88.3269 122.206 87.4442 121.912L73.5422 117.282C72.6595 116.988 72.4261 115.849 73.1221 115.231L84.0833 105.507C84.7793 104.889 85.8826 105.257 86.0693 106.168L89.0101 120.523Z" fill="white"/>
<path opacity="0.336817" d="M64.0349 106.14C64.6756 106.814 64.3457 107.929 63.4412 108.147L49.1945 111.573C48.2899 111.791 47.4891 110.948 47.7529 110.056L51.909 96.0043C52.1729 95.1122 53.3036 94.8403 53.9442 95.5148L64.0349 106.14Z" fill="white"/>
<path opacity="0.490138" d="M68.9247 24.3928C68.0599 24.0498 67.8907 22.8993 68.6202 22.3218L80.109 13.2269C80.8384 12.6495 81.9194 13.0782 82.0548 13.9986L84.1868 28.4957C84.3222 29.4161 83.4104 30.1379 82.5455 29.7949L68.9247 24.3928Z" fill="white"/>
<path opacity="0.170198" d="M256.942 17.1748C256.641 18.0553 255.5 18.2803 254.888 17.5798L245.245 6.54725C244.632 5.84676 245.008 4.74617 245.921 4.56617L260.297 1.73121C261.21 1.55121 261.975 2.42682 261.674 3.30729L256.942 17.1748Z" fill="white"/>
<path opacity="0.651017" d="M167.742 159.688C168.671 159.653 169.291 160.637 168.857 161.46L162.023 174.421C161.589 175.244 160.427 175.289 159.931 174.501L152.123 162.102C151.627 161.315 152.17 160.286 153.099 160.25L167.742 159.688Z" fill="white"/>
<path opacity="0.812382" d="M150.537 221.366C150.093 222.184 148.931 222.215 148.444 221.421L140.783 208.931C140.297 208.138 140.851 207.115 141.781 207.091L156.429 206.702C157.359 206.677 157.967 207.668 157.524 208.486L150.537 221.366Z" fill="white"/>
<path opacity="0.892415" d="M100.888 225.462C100.873 224.532 101.871 223.934 102.684 224.386L115.491 231.505C116.304 231.957 116.323 233.12 115.525 233.598L102.956 241.13C102.158 241.608 101.141 241.043 101.126 240.113L100.888 225.462Z" fill="white"/>
<path opacity="0.854622" d="M343.163 37.2576C342.476 36.63 342.726 35.4943 343.613 35.2133L357.582 30.788C358.469 30.507 359.327 31.2915 359.127 32.2001L355.975 46.51C355.775 47.4186 354.667 47.7698 353.98 47.1422L343.163 37.2576Z" fill="white"/>
<path opacity="0.495993" d="M19.3085 91.8407C18.3849 91.7285 17.9292 90.6586 18.4882 89.9149L27.2919 78.2014C27.8508 77.4577 29.0053 77.598 29.3699 78.4539L35.1121 91.9349C35.4767 92.7908 34.778 93.7205 33.8545 93.6082L19.3085 91.8407Z" fill="white"/>
<path opacity="0.831671" d="M220.979 156.717C221.818 157.12 221.905 158.28 221.137 158.804L209.033 167.064C208.265 167.588 207.217 167.084 207.147 166.156L206.046 151.545C205.976 150.617 206.936 149.962 207.775 150.365L220.979 156.717Z" fill="white"/>
<circle opacity="0.85" cx="267.485" cy="37.2648" r="3.02923" transform="rotate(-22 267.485 37.2648)" fill="white"/>
<circle opacity="0.78" cx="358.51" cy="137.937" r="3.84354" transform="rotate(10 358.51 137.937)" fill="white"/>
<circle opacity="0.99" cx="114.631" cy="203.22" r="2.44293" transform="rotate(162 114.631 203.22)" fill="white"/>
<circle opacity="0.8" cx="47.0246" cy="45.1912" r="3.19209" transform="rotate(65 47.0246 45.1912)" fill="white"/>
</g>
<defs>
<clipPath id="clip0">
<rect width="452" height="293.679" fill="white" transform="translate(-39 -39.3396)"/>
</clipPath>
</defs>
</svg>
