<svg width="640" height="327" viewBox="0 0 640 327" fill="none" xmlns="http://www.w3.org/2000/svg">
<g clip-path="url(#clip0)">
<path opacity="0.354684" d="M477.011 281.966L472.954 298.003C472.719 298.932 473.606 299.751 474.513 299.444L487.606 295.01C487.862 294.924 488.081 294.754 488.229 294.529L498.649 278.659C499.244 277.753 498.439 276.583 497.38 276.815L477.924 281.082C477.476 281.18 477.123 281.522 477.011 281.966Z" fill="white"/>
<path opacity="0.297126" d="M422.393 167.543L419.709 164.573C410.172 154.063 403.875 147.131 404.625 139.45C405.236 133.193 410.633 128.756 416.891 129.367C420.426 129.712 423.659 131.689 425.619 134.506C428.088 132.122 431.642 130.807 435.177 131.152C441.435 131.763 445.872 137.16 445.26 143.418C444.511 151.098 436.991 156.682 425.599 165.169L422.393 167.543Z" fill="white"/>
<rect opacity="0.836534" x="64.2888" y="-10.8313" width="25.2922" height="25.2922" rx="3.62567" transform="rotate(40.0562 64.2888 -10.8313)" fill="white"/>
<path opacity="0.973452" d="M198.817 260.728C195.117 260.567 193.28 258.287 193.378 256.122C193.475 253.959 195.506 251.85 199.203 252.013C200.647 252.079 201.251 251.578 201.264 251.36C201.273 251.138 200.711 250.584 199.271 250.522C195.574 250.358 193.737 248.078 193.834 245.915C193.928 243.749 195.961 241.644 199.661 241.806C201.102 241.871 201.709 241.369 201.717 241.149C201.727 240.93 201.167 240.376 199.726 240.312C198.732 240.267 197.956 239.424 198.001 238.428C198.048 237.432 198.891 236.66 199.888 236.703C203.584 236.866 205.424 239.143 205.329 241.311C205.232 243.474 203.201 245.58 199.499 245.417C198.055 245.353 197.451 245.852 197.443 246.074C197.432 246.293 197.99 246.848 199.43 246.912C203.132 247.075 204.968 249.351 204.871 251.52C204.776 253.684 202.744 255.789 199.044 255.629C197.605 255.563 196.999 256.067 196.988 256.284C196.98 256.506 197.537 257.059 198.979 257.123C199.977 257.167 200.747 258.011 200.703 259.006C200.659 260 199.815 260.772 198.817 260.728Z" fill="white"/>
<path opacity="0.510253" d="M-18.6417 49.8501C-21.6399 47.6756 -21.9153 44.7606 -20.64 43.0084C-19.3662 41.2573 -16.5086 40.6176 -13.5144 42.7929C-12.3462 43.6431 -11.5658 43.5588 -11.4346 43.3838C-11.3053 43.2036 -11.4678 42.4319 -12.6352 41.5857C-15.6294 39.4104 -15.9048 36.4954 -14.6309 34.7443C-13.3579 32.9893 -10.5009 32.3546 -7.50417 34.5302C-6.33715 35.379 -5.5542 35.295 -5.42634 35.1158C-5.29736 34.9381 -5.45876 34.1679 -6.62578 33.3191C-7.43028 32.7343 -7.61216 31.6028 -7.02592 30.7972C-6.43714 29.9919 -5.3085 29.8122 -4.50034 30.3988C-1.50723 32.5727 -1.22789 35.4868 -2.50234 37.243C-3.77618 38.9941 -6.63203 39.6301 -9.62991 37.4531C-10.7995 36.6041 -11.5785 36.6873 -11.7077 36.8675C-11.8378 37.0439 -11.6779 37.8152 -10.512 38.6625C-7.51408 40.8396 -7.23698 43.7509 -8.51396 45.5067C-9.78669 47.2592 -12.6425 47.8953 -15.6407 45.7208C-16.8052 44.8724 -17.5884 44.9589 -17.7171 45.1341C-17.8464 45.3144 -17.6861 46.0832 -16.5191 46.932C-15.7109 47.5185 -15.5338 48.6468 -16.119 49.4539C-16.7038 50.2584 -17.8335 50.4366 -18.6417 49.8501Z" fill="white"/>
<path opacity="0.32809" d="M636.988 300.491C640.167 302.392 640.699 305.271 639.583 307.129C638.469 308.986 635.679 309.876 632.504 307.974C631.266 307.23 630.496 307.383 630.381 307.569C630.268 307.76 630.498 308.514 631.735 309.254C634.91 311.156 635.442 314.035 634.328 315.892C633.215 317.753 630.425 318.637 627.248 316.735C626.01 315.993 625.238 316.145 625.126 316.335C625.014 316.524 625.243 317.277 626.48 318.019C627.333 318.53 627.614 319.641 627.101 320.496C626.586 321.35 625.478 321.629 624.621 321.116C621.447 319.215 620.912 316.337 622.026 314.475C623.14 312.618 625.929 311.732 629.107 313.636C630.347 314.378 631.116 314.226 631.228 314.035C631.342 313.848 631.115 313.094 629.879 312.353C626.7 310.449 626.167 307.574 627.284 305.712C628.397 303.854 631.185 302.968 634.364 304.869C635.599 305.611 636.371 305.456 636.484 305.27C636.597 305.079 636.369 304.327 635.132 303.585C634.275 303.072 633.999 301.964 634.51 301.108C635.022 300.255 636.131 299.978 636.988 300.491Z" fill="white"/>
<path opacity="0.64046" d="M-13.8508 306.243C-13.5102 302.555 -11.1436 300.831 -8.98602 301.034C-6.83007 301.236 -4.822 303.367 -5.16532 307.052C-5.30058 308.491 -4.82992 309.119 -4.61254 309.142C-4.39152 309.162 -3.81079 308.628 -3.67852 307.193C-3.33519 303.508 -0.968602 301.784 1.18734 301.986C3.34627 302.185 5.34968 304.319 5.00739 308.006C4.87278 309.443 5.34448 310.073 5.56381 310.092C5.78249 310.112 6.36257 309.58 6.49717 308.144C6.58972 307.153 7.47008 306.42 8.46206 306.513C9.45508 306.608 10.1854 307.487 10.0932 308.482C9.75055 312.165 7.38668 313.892 5.22606 313.692C3.07012 313.49 1.06606 311.358 1.409 307.669C1.54257 306.23 1.0736 305.602 0.852583 305.583C0.63455 305.561 0.0527847 306.092 -0.0811711 307.527C-0.42411 311.216 -2.78668 312.94 -4.94833 312.738C-7.10493 312.537 -9.10898 310.405 -8.76838 306.717C-8.63274 305.283 -9.10677 304.653 -9.32311 304.632C-9.54413 304.613 -10.1236 305.143 -10.2582 306.58C-10.3503 307.574 -11.2304 308.302 -12.223 308.21C-13.2133 308.118 -13.943 307.237 -13.8508 306.243Z" fill="white"/>
<path opacity="0.179701" d="M473.46 304.615L472.071 300.861C467.119 287.561 463.847 278.785 467.396 271.933C470.288 266.35 476.946 264.235 482.53 267.126C485.684 268.76 487.951 271.796 488.725 275.14C491.903 273.843 495.69 273.942 498.845 275.576C504.428 278.467 506.543 285.126 503.651 290.709C500.103 297.562 491.048 299.953 477.318 303.602L473.46 304.615Z" fill="white"/>
<ellipse opacity="0.162048" cx="425.911" cy="265.122" rx="11.7428" ry="11.7428" transform="rotate(62.8727 425.911 265.122)" fill="white"/>
<rect opacity="0.60482" x="421.975" y="180.667" width="25.2922" height="25.2922" rx="3.62567" transform="rotate(-87.2124 421.975 180.667)" fill="white"/>
<path opacity="0.148161" d="M82.9128 157.303L73.1895 170.686C72.6266 171.461 73.1457 172.552 74.1021 172.603L87.9055 173.349C88.1748 173.364 88.4412 173.288 88.6623 173.134L104.232 162.269C105.12 161.649 104.807 160.263 103.738 160.086L84.0887 156.821C83.6371 156.746 83.1819 156.932 82.9128 157.303Z" fill="white"/>
<path opacity="0.347145" d="M304.931 319.287L301.092 318.153C287.473 314.16 278.485 311.529 275.119 304.585C272.377 298.927 274.668 292.327 280.326 289.584C283.522 288.035 287.311 288.036 290.453 289.417C291.316 286.095 293.663 283.12 296.859 281.571C302.517 278.828 309.117 281.119 311.86 286.777C315.226 293.721 311.722 302.406 306.429 315.589L304.931 319.287Z" fill="white"/>
<path opacity="0.811322" d="M189.732 276.968L193.599 275.933C207.301 272.237 216.342 269.793 222.836 273.963C228.127 277.36 229.615 284.186 226.218 289.477C224.299 292.466 221.065 294.441 217.664 294.902C218.661 298.186 218.21 301.949 216.291 304.938C212.894 310.229 206.068 311.717 200.777 308.32C194.283 304.15 192.742 294.913 190.383 280.904L189.732 276.968Z" fill="white"/>
<circle opacity="0.973477" cx="292.135" cy="272.666" r="11.7428" transform="rotate(-51.7189 292.135 272.666)" fill="white"/>
<path opacity="0.992392" d="M432.09 310.676L433.992 307.153C440.711 294.652 445.14 286.401 452.63 284.541C458.732 283.026 464.717 286.63 466.232 292.732C467.088 296.18 466.305 299.887 464.305 302.676C467.378 304.206 469.804 307.116 470.66 310.564C472.175 316.666 468.571 322.651 462.469 324.167C454.98 326.026 447.205 320.805 435.399 312.904L432.09 310.676Z" fill="white"/>
<path opacity="0.78556" d="M261.278 162.306L248.203 172.44C247.446 173.026 247.639 174.219 248.543 174.535L261.588 179.109C261.843 179.198 262.12 179.199 262.375 179.113L280.361 173.032C281.387 172.684 281.473 171.266 280.497 170.797L262.542 162.172C262.129 161.974 261.64 162.026 261.278 162.306Z" fill="white"/>
<rect opacity="0.725465" width="14.5811" height="14.5811" rx="3.62567" transform="matrix(0.110418 0.993885 -0.993885 0.110417 526.796 60.8082)" fill="white"/>
<rect opacity="0.42976" x="131.115" y="95.7571" width="25.2922" height="25.2922" rx="3.62567" transform="rotate(179.493 131.115 95.7571)" fill="white"/>
<rect opacity="0.124355" x="46.2058" y="193.313" width="25.2922" height="25.2922" rx="3.62567" transform="rotate(70.4782 46.2058 193.313)" fill="white"/>
<rect opacity="0.612702" width="25.2922" height="25.2922" rx="3.62567" transform="matrix(0.824331 -0.566108 0.566107 0.824332 501.465 142.728)" fill="white"/>
<rect opacity="0.618711" x="37.1729" y="99.3704" width="25.2922" height="25.2922" rx="3.62567" transform="rotate(97.3519 37.1729 99.3704)" fill="white"/>
<rect opacity="0.248917" x="490.753" y="79.8518" width="25.2922" height="25.2922" rx="3.62567" transform="rotate(150.591 490.753 79.8518)" fill="white"/>
<rect opacity="0.01" x="158.214" y="12.6543" width="25.2922" height="25.2922" rx="3.62567" transform="rotate(-164.282 158.214 12.6543)" fill="white"/>
<rect opacity="0.0177086" x="46.2058" y="-5.4115" width="25.2922" height="25.2922" rx="3.62567" transform="rotate(70.4782 46.2058 -5.4115)" fill="white"/>
<rect opacity="0.351352" x="571.922" y="75.8848" width="25.2922" height="25.2922" rx="3.62567" transform="rotate(88.7321 571.922 75.8848)" fill="white"/>
<rect opacity="0.18238" x="629.732" y="83.1111" width="25.2922" height="25.2922" rx="3.62567" transform="rotate(11.1538 629.732 83.1111)" fill="white"/>
<rect opacity="0.807555" x="380.424" y="325.193" width="25.2922" height="25.2922" rx="3.62567" transform="rotate(179.493 380.424 325.193)" fill="white"/>
<rect opacity="0.79941" width="25.2922" height="25.2922" rx="3.62567" transform="matrix(-0.660293 0.751008 -0.751007 -0.660295 645.992 263.77)" fill="white"/>
<rect opacity="0.689384" x="373.198" y="164.407" width="25.2922" height="25.2922" rx="3.62567" transform="rotate(90.2518 373.198 164.407)" fill="white"/>
<rect opacity="0.414834" x="535.79" y="312.547" width="25.2922" height="25.2922" rx="3.62567" transform="rotate(-33.4649 535.79 312.547)" fill="white"/>
<rect opacity="0.396291" x="55.2385" y="308.934" width="25.2922" height="25.2922" rx="3.62567" transform="rotate(-128.283 55.2385 308.934)" fill="white"/>
<rect opacity="0.37213" x="15.4939" y="191.506" width="25.2922" height="25.2922" rx="3.62567" transform="rotate(-95.8322 15.4939 191.506)" fill="white"/>
<rect opacity="0.874192" x="557.469" y="236.671" width="25.2922" height="25.2922" rx="3.62567" transform="rotate(176.45 557.469 236.671)" fill="white"/>
<rect opacity="0.170281" x="479.786" y="34.3334" width="25.2922" height="25.2922" rx="3.62567" transform="rotate(-72.0014 479.786 34.3334)" fill="white"/>
<rect opacity="0.872248" x="584.568" y="171.634" width="25.2922" height="25.2922" rx="3.62567" transform="rotate(16.7308 584.568 171.634)" fill="white"/>
<rect opacity="0.249363" x="184.129" y="46.9794" width="25.2922" height="25.2922" rx="3.62567" transform="rotate(61.8584 184.129 46.9794)" fill="white"/>
<rect opacity="0.920674" x="239.51" y="321.58" width="25.2922" height="25.2922" rx="3.62567" transform="rotate(-117.634 239.51 321.58)" fill="white"/>
<path opacity="0.1909" d="M129.619 291.339C129.609 292.27 128.596 292.841 127.795 292.367L107.157 280.166C106.356 279.693 106.368 278.53 107.178 278.073L128.064 266.3C128.874 265.843 129.876 266.435 129.866 267.365L129.619 291.339Z" fill="white"/>
<path opacity="0.648578" d="M478.148 277.27C477.221 277.339 476.566 276.377 476.971 275.54L487.396 253.95C487.801 253.112 488.96 253.026 489.484 253.795L502.969 273.619C503.492 274.388 502.986 275.435 502.058 275.504L478.148 277.27Z" fill="white"/>
<path opacity="0.362227" d="M463.782 6.21181C463.027 6.7542 461.967 6.27493 461.875 5.34913L459.51 -18.5092C459.418 -19.435 460.363 -20.113 461.21 -19.7296L483.055 -9.84893C483.903 -9.46551 484.018 -8.30825 483.262 -7.76586L463.782 6.21181Z" fill="white"/>
<path opacity="0.0353813" d="M397.616 82.9787C398.337 82.3905 399.424 82.8033 399.573 83.7216L403.411 107.388C403.56 108.306 402.659 109.041 401.789 108.711L379.375 100.202C378.505 99.8718 378.319 98.7239 379.04 98.1357L397.616 82.9787Z" fill="white"/>
<path opacity="0.842532" d="M251.087 274.474C250.161 274.387 249.677 273.329 250.216 272.571L264.107 253.03C264.647 252.272 265.804 252.381 266.191 253.227L276.169 275.028C276.556 275.874 275.882 276.822 274.956 276.734L251.087 274.474Z" fill="white"/>
<path opacity="0.961859" d="M15.6505 34.1499C16.5804 34.1801 17.1289 35.2055 16.6378 35.9957L3.98313 56.3593C3.49207 57.1495 2.32975 57.1117 1.89095 56.2914L-9.41706 35.1503C-9.85586 34.33 -9.24204 33.3422 -8.31218 33.3724L15.6505 34.1499Z" fill="white"/>
<path opacity="0.13668" d="M172.73 127.982C172.916 128.894 172.047 129.665 171.164 129.371L148.417 121.795C147.535 121.501 147.301 120.362 147.997 119.744L165.932 103.833C166.628 103.216 167.731 103.583 167.918 104.495L172.73 127.982Z" fill="white"/>
<path opacity="0.336817" d="M135.901 106.218C136.542 106.892 136.212 108.008 135.308 108.225L111.997 113.831C111.092 114.049 110.292 113.206 110.556 112.313L117.356 89.3227C117.62 88.4306 118.75 88.1587 119.391 88.8332L135.901 106.218Z" fill="white"/>
<path opacity="0.651017" d="M291.247 185.473C292.177 185.437 292.796 186.421 292.362 187.244L281.18 208.452C280.746 209.275 279.584 209.319 279.088 208.532L266.313 188.244C265.817 187.457 266.36 186.428 267.289 186.392L291.247 185.473Z" fill="white"/>
<path opacity="0.812382" d="M264 278.621C263.556 279.438 262.394 279.469 261.907 278.676L249.372 258.238C248.886 257.445 249.441 256.423 250.371 256.399L274.337 255.762C275.267 255.737 275.875 256.729 275.432 257.546L264 278.621Z" fill="white"/>
<path opacity="0.892415" d="M190.261 282.797C190.246 281.867 191.243 281.269 192.056 281.721L213.012 293.37C213.825 293.822 213.844 294.985 213.046 295.463L192.48 307.787C191.682 308.265 190.665 307.7 190.65 306.769L190.261 282.797Z" fill="white"/>
<path opacity="0.854622" d="M551.672 1.8009C550.985 1.17331 551.235 0.037598 552.122 -0.243375L574.978 -7.48413C575.865 -7.7651 576.724 -6.98061 576.523 -6.07204L571.366 17.342C571.166 18.2506 570.057 18.6018 569.371 17.9742L551.672 1.8009Z" fill="white"/>
<path opacity="0.495993" d="M67.3015 83.9671C66.3779 83.8549 65.9222 82.785 66.4811 82.0412L80.8858 62.8756C81.4448 62.1319 82.5992 62.2722 82.9638 63.1282L92.3594 85.1858C92.724 86.0417 92.0252 86.9713 91.1017 86.8591L67.3015 83.9671Z" fill="white"/>
<path opacity="0.821886" d="M645.426 78.3406C646.331 78.5581 646.661 79.6733 646.02 80.3479L629.51 97.7329C628.869 98.4075 627.739 98.1356 627.475 97.2435L620.674 74.253C620.41 73.3609 621.211 72.5176 622.115 72.7351L645.426 78.3406Z" fill="white"/>
<path opacity="0.831671" d="M370.727 181.52C371.565 181.923 371.652 183.083 370.884 183.607L351.081 197.122C350.312 197.646 349.264 197.142 349.194 196.214L347.392 172.307C347.322 171.379 348.283 170.723 349.121 171.127L370.727 181.52Z" fill="white"/>
<ellipse opacity="0.85" cx="439.312" cy="2.51035" rx="4.52818" ry="4.52818" transform="rotate(-22 439.312 2.51035)" fill="white"/>
<circle opacity="0.8" cx="20.2003" cy="45.5624" r="4.13866" transform="rotate(52 20.2003 45.5624)" fill="white"/>
<circle opacity="0.78" cx="575.378" cy="152.997" r="5.74543" transform="rotate(10 575.378 152.997)" fill="white"/>
<circle opacity="0.99" cx="210.821" cy="250.585" r="3.65176" transform="rotate(162 210.821 250.585)" fill="white"/>
<circle opacity="0.8" cx="109.761" cy="14.3591" r="4.77163" transform="rotate(65 109.761 14.3591)" fill="white"/>
</g>
<defs>
<clipPath id="clip0">
<rect width="675.662" height="439" fill="white" transform="translate(-18.8313 -112)"/>
</clipPath>
</defs>
</svg>
